<svg width="25" height="24" viewBox="0 0 25 24" fill="none" xmlns="http://www.w3.org/2000/svg">
<path d="M17.5 3.5H7.5C4.5 3.5 2.5 5 2.5 8.5V15.5C2.5 19 4.5 20.5 7.5 20.5H17.5C20.5 20.5 22.5 19 22.5 15.5V8.5C22.5 5 20.5 3.5 17.5 3.5ZM4.25 8.5C4.25 6.71 5.71 5.25 7.5 5.25H9C9.41 5.25 9.75 5.59 9.75 6C9.75 6.41 9.41 6.75 9 6.75H7.5C6.54 6.75 5.75 7.54 5.75 8.5V10C5.75 10.41 5.41 10.75 5 10.75C4.59 10.75 4.25 10.41 4.25 10V8.5ZM9 18.75H7.5C5.71 18.75 4.25 17.29 4.25 15.5V14C4.25 13.59 4.59 13.25 5 13.25C5.41 13.25 5.75 13.59 5.75 14V15.5C5.75 16.46 6.54 17.25 7.5 17.25H9C9.41 17.25 9.75 17.59 9.75 18C9.75 18.41 9.41 18.75 9 18.75ZM12.5 15C10.84 15 9.5 13.66 9.5 12C9.5 10.34 10.84 9 12.5 9C14.16 9 15.5 10.34 15.5 12C15.5 13.66 14.16 15 12.5 15ZM20.75 15.5C20.75 17.29 19.29 18.75 17.5 18.75H16C15.59 18.75 15.25 18.41 15.25 18C15.25 17.59 15.59 17.25 16 17.25H17.5C18.46 17.25 19.25 16.46 19.25 15.5V14C19.25 13.59 19.59 13.25 20 13.25C20.41 13.25 20.75 13.59 20.75 14V15.5ZM20.75 10C20.75 10.41 20.41 10.75 20 10.75C19.59 10.75 19.25 10.41 19.25 10V8.5C19.25 7.54 18.46 6.75 17.5 6.75H16C15.59 6.75 15.25 6.41 15.25 6C15.25 5.59 15.59 5.25 16 5.25H17.5C19.29 5.25 20.75 6.71 20.75 8.5V10Z" fill="#292D32"/>
</svg>
