<svg width="25" height="24" viewBox="0 0 25 24" fill="none" xmlns="http://www.w3.org/2000/svg">
<path d="M21.1211 8.45C20.0711 3.83 16.0411 1.75 12.5011 1.75C12.5011 1.75 12.5011 1.75 12.4911 1.75C8.96107 1.75 4.92107 3.82 3.87107 8.44C2.70107 13.6 5.86107 17.97 8.72107 20.72C9.78107 21.74 11.1411 22.25 12.5011 22.25C13.8611 22.25 15.2211 21.74 16.2711 20.72C19.1311 17.97 22.2911 13.61 21.1211 8.45ZM12.5011 13.46C10.7611 13.46 9.35107 12.05 9.35107 10.31C9.35107 8.57 10.7611 7.16 12.5011 7.16C14.2411 7.16 15.6511 8.57 15.6511 10.31C15.6511 12.05 14.2411 13.46 12.5011 13.46Z" fill="#403F41"/>
</svg>
