<svg width="89" height="24" viewBox="0 0 89 24" fill="none" xmlns="http://www.w3.org/2000/svg">
<path d="M7.98433 0H0.875V15.2296C0.875 20.0648 4.86411 24 9.76567 24H16.875V8.77045C16.875 3.93517 12.8859 0 7.98433 0ZM14.7108 21.8651H9.76567C6.05626 21.8651 3.03921 18.8888 3.03921 15.2296V5.98191H3.06443C5.49916 5.98191 7.51205 7.80249 7.778 10.1364V13.3366C7.778 13.5492 7.78946 13.7573 7.8078 13.9653V14.0535H7.81468C8.1792 17.4753 11.1206 20.1508 14.6833 20.1508H14.7085V21.8651H14.7108ZM14.7108 18.0158H14.6856C12.2508 18.0158 10.2379 16.1953 9.97201 13.8613V10.6611C9.97201 10.4486 9.96054 10.2405 9.9422 10.0324V9.94421H9.93533C9.5708 6.52243 6.62941 3.84697 3.06672 3.84697H3.0415V2.13268H7.98662C11.696 2.13268 14.7131 5.10893 14.7131 8.76819V18.0158H14.7108Z" fill="#102816"/>
<path d="M28.1883 4.24876V19.5184H33.8886C34.3861 19.5184 34.7883 19.3596 35.1482 19.0473C35.487 18.7562 35.6881 18.1264 35.7357 17.6288L35.8045 16.8614H36.0745L35.8257 19.7671H24.875V19.5184H26.0447V4.24876H24.875V4H29.358V4.24876H28.1883Z" fill="#102816"/>
<path d="M48.3022 13.7122V4.22759H47.1749V4H49.6519V4.22759H48.551V13.7122C48.551 15.4694 48.0323 16.9778 46.9949 18.174C45.9787 19.3913 44.809 20 43.1206 20C41.4322 20 40.0349 19.3913 39.0187 18.2005C37.9814 17.0043 37.4415 15.4959 37.4415 13.7175V4.23288H36.293V4.0053H40.8183V4.23288H39.6009V14.9084C39.6009 16.2157 39.9185 17.2742 40.5907 18.1316C41.2205 18.9626 42.1203 19.3702 43.2688 19.3702C44.7984 19.3702 45.9946 18.8515 46.9155 17.7717C47.8153 16.7132 48.2916 15.3635 48.2916 13.7175L48.3022 13.7122Z" fill="#102816"/>
<path d="M62.3594 4H64.8152V4.24876H63.6455L58.7127 11.1399L64.0954 19.5184H65.0852V19.7671H60.9621V19.5184H61.6131L57.4212 12.9395L52.716 19.5184H53.6422V19.7671H51.1864V19.5184H52.4725L57.2942 12.7383L51.8215 4.24876H51.0117V4H55.1559V4.24876H54.2985L58.5804 10.9388L63.4021 4.24876H62.3647V4H62.3594Z" fill="#102816"/>
<path d="M67.6033 4.24876H66.4336V4H70.9166V4.24876H69.7469V19.5184H70.9166V19.7671H66.4336V19.5184H67.6033V4.24876Z" fill="#102816"/>
<path d="M84.8384 19.5232V4.76703L79.2757 19.9731H79.027C79.027 19.9731 77.1798 14.7703 73.6443 5.01579V19.5232H74.7716V19.772H72.2734V19.5232H73.4008V4.25364H72.2734V4.00488H75.6079C77.1375 8.28672 78.6724 12.5633 80.1808 16.8663L84.8437 4.00488H88.1305V4.25364H86.9608V19.5232H88.1305V19.772H83.6687V19.5232H84.8384Z" fill="#102816"/>
</svg>
