<svg width="146" height="40" viewBox="0 0 146 40" fill="none" xmlns="http://www.w3.org/2000/svg">
<path d="M11.8489 0H0V25.3826C0 33.4414 6.64852 40 14.8178 40H26.6667V14.6174C26.6667 6.55861 20.0181 0 11.8489 0ZM23.0597 36.4418H14.8178C8.63543 36.4418 3.60701 31.4813 3.60701 25.3826V9.96985H3.64904C7.70693 9.96985 11.0618 13.0041 11.505 16.8941V22.2277C11.505 22.582 11.5241 22.9288 11.5547 23.2755V23.4225H11.5661C12.1737 29.1255 17.076 33.5846 23.0138 33.5846H23.0558V36.4418H23.0597ZM23.0597 30.0264H23.0176C18.9597 30.0264 15.6049 26.9921 15.1617 23.1022V17.7686C15.1617 17.4142 15.1426 17.0675 15.112 16.7207V16.5737H15.1005C14.493 10.8707 9.59068 6.41161 3.65286 6.41161H3.61083V3.55447H11.8527C18.0351 3.55447 23.0635 8.51489 23.0635 14.6136V30.0264H23.0597Z" fill="#F8F8F8"/>
<path d="M40.4642 6.43533V33.1571H50.4397C51.3104 33.1571 52.0143 32.8793 52.6442 32.3328C53.237 31.8234 53.5889 30.7211 53.6723 29.8505L53.7927 28.5074H54.2651L53.8298 33.5925H34.666V33.1571H36.713V6.43533H34.666V6H42.5112V6.43533H40.4642Z" fill="#F8F8F8"/>
<path d="M75.6607 22.9964V6.39829H73.6879V6H78.0226V6.39829H76.0961V22.9964C76.0961 26.0715 75.1884 28.7112 73.3729 30.8045C71.5946 32.9348 69.5476 34 66.5929 34C63.6382 34 61.193 32.9348 59.4146 30.8508C57.5992 28.7575 56.6545 26.1178 56.6545 23.0056V6.40754H54.6445V6.00927H62.5638V6.40754H60.4335V25.0896C60.4335 27.3774 60.9892 29.2299 62.1655 30.7304C63.2678 32.1846 64.8423 32.8978 66.8523 32.8978C69.5291 32.8978 71.6224 31.9901 73.234 30.1006C74.8086 28.2481 75.6422 25.8862 75.6422 23.0056L75.6607 22.9964Z" fill="#F8F8F8"/>
<path d="M100.261 6H104.558V6.43533H102.511L93.879 18.4949L103.299 33.1571H105.031V33.5925H97.8155V33.1571H98.9548L91.619 21.6441L83.3848 33.1571H85.0057V33.5925H80.708V33.1571H82.9587L91.3967 21.2921L81.8195 6.43533H80.4023V6H87.6547V6.43533H86.1542L93.6475 18.1429L102.085 6.43533H100.27V6H100.261Z" fill="#F8F8F8"/>
<path d="M109.442 6.43533H107.395V6H115.24V6.43533H113.193V33.1571H115.24V33.5925H107.395V33.1571H109.442V6.43533Z" fill="#F8F8F8"/>
<path d="M139.598 33.1664V7.34304L129.863 33.9537H129.428C129.428 33.9537 126.196 24.8488 120.008 7.77837V33.1664H121.981V33.6017H117.609V33.1664H119.582V6.44461H117.609V6.00928H123.445C126.121 13.5025 128.808 20.9864 131.447 28.5167L139.607 6.00928H145.359V6.44461H143.312V33.1664H145.359V33.6017H137.551V33.1664H139.598Z" fill="#F8F8F8"/>
</svg>
