<svg width="20" height="20" viewBox="0 0 20 20" fill="none" xmlns="http://www.w3.org/2000/svg">
<g clip-path="url(#clip0_5982_157165)">
<path d="M10.003 0C5.82843 0 4.60734 0.00429688 4.36984 0.0238281C3.51319 0.0953125 2.97999 0.230078 2.39913 0.519531C1.95148 0.741797 1.59835 0.999609 1.2503 1.36094C0.615538 2.01953 0.231163 2.83008 0.0921007 3.79336C0.0245226 4.26094 0.00460069 4.35664 0.000694444 6.7457C-0.000868056 7.54219 0.000694444 8.59023 0.000694444 9.99609C0.000694444 14.1687 0.00538194 15.3887 0.0253038 15.6258C0.0944444 16.4598 0.225304 16.9844 0.502257 17.5582C1.03155 18.6566 2.0421 19.4813 3.23234 19.7891C3.64444 19.8953 4.09991 19.9535 4.68429 19.9812C4.93194 19.9922 7.45616 19.9996 9.98194 19.9996C12.5077 19.9996 15.0331 19.9965 15.2749 19.9844C15.9519 19.9523 16.3448 19.8996 16.7792 19.7875C17.9773 19.4781 18.9694 18.666 19.5093 17.552C19.7808 16.9918 19.9183 16.4473 19.9808 15.657C19.9944 15.4848 19.9999 12.7371 19.9999 9.99336C19.9999 7.24922 19.9937 4.50664 19.9804 4.33437C19.9175 3.53125 19.7796 2.99102 19.4995 2.42031C19.2694 1.95312 19.0144 1.60391 18.6437 1.24727C17.9819 0.615234 17.173 0.230469 16.2089 0.0914062C15.7413 0.0242187 15.6484 0.00429688 13.2581 0H10.003Z" fill="url(#paint0_radial_5982_157165)"/>
<path d="M10.003 0C5.82843 0 4.60734 0.00429688 4.36984 0.0238281C3.51319 0.0953125 2.97999 0.230078 2.39913 0.519531C1.95148 0.741797 1.59835 0.999609 1.2503 1.36094C0.615538 2.01953 0.231163 2.83008 0.0921007 3.79336C0.0245226 4.26094 0.00460069 4.35664 0.000694444 6.7457C-0.000868056 7.54219 0.000694444 8.59023 0.000694444 9.99609C0.000694444 14.1687 0.00538194 15.3887 0.0253038 15.6258C0.0944444 16.4598 0.225304 16.9844 0.502257 17.5582C1.03155 18.6566 2.0421 19.4813 3.23234 19.7891C3.64444 19.8953 4.09991 19.9535 4.68429 19.9812C4.93194 19.9922 7.45616 19.9996 9.98194 19.9996C12.5077 19.9996 15.0331 19.9965 15.2749 19.9844C15.9519 19.9523 16.3448 19.8996 16.7792 19.7875C17.9773 19.4781 18.9694 18.666 19.5093 17.552C19.7808 16.9918 19.9183 16.4473 19.9808 15.657C19.9944 15.4848 19.9999 12.7371 19.9999 9.99336C19.9999 7.24922 19.9937 4.50664 19.9804 4.33437C19.9175 3.53125 19.7796 2.99102 19.4995 2.42031C19.2694 1.95312 19.0144 1.60391 18.6437 1.24727C17.9819 0.615234 17.173 0.230469 16.2089 0.0914062C15.7413 0.0242187 15.6484 0.00429688 13.2581 0H10.003Z" fill="url(#paint1_radial_5982_157165)"/>
<path d="M10.003 0C5.82843 0 4.60734 0.00429688 4.36984 0.0238281C3.51319 0.0953125 2.97999 0.230078 2.39913 0.519531C1.95148 0.741797 1.59835 0.999609 1.2503 1.36094C0.615538 2.01953 0.231163 2.83008 0.0921007 3.79336C0.0245226 4.26094 0.00460069 4.35664 0.000694444 6.7457C-0.000868056 7.54219 0.000694444 8.59023 0.000694444 9.99609C0.000694444 14.1687 0.00538194 15.3887 0.0253038 15.6258C0.0944444 16.4598 0.225304 16.9844 0.502257 17.5582C1.03155 18.6566 2.0421 19.4813 3.23234 19.7891C3.64444 19.8953 4.09991 19.9535 4.68429 19.9812C4.93194 19.9922 7.45616 19.9996 9.98194 19.9996C12.5077 19.9996 15.0331 19.9965 15.2749 19.9844C15.9519 19.9523 16.3448 19.8996 16.7792 19.7875C17.9773 19.4781 18.9694 18.666 19.5093 17.552C19.7808 16.9918 19.9183 16.4473 19.9808 15.657C19.9944 15.4848 19.9999 12.7371 19.9999 9.99336C19.9999 7.24922 19.9937 4.50664 19.9804 4.33437C19.9175 3.53125 19.7796 2.99102 19.4995 2.42031C19.2694 1.95312 19.0144 1.60391 18.6437 1.24727C17.9819 0.615234 17.173 0.230469 16.2089 0.0914062C15.7413 0.0242187 15.6484 0.00429688 13.2581 0H10.003Z" fill="url(#paint2_radial_5982_157165)"/>
<path d="M10.003 0C5.82843 0 4.60734 0.00429688 4.36984 0.0238281C3.51319 0.0953125 2.97999 0.230078 2.39913 0.519531C1.95148 0.741797 1.59835 0.999609 1.2503 1.36094C0.615538 2.01953 0.231163 2.83008 0.0921007 3.79336C0.0245226 4.26094 0.00460069 4.35664 0.000694444 6.7457C-0.000868056 7.54219 0.000694444 8.59023 0.000694444 9.99609C0.000694444 14.1687 0.00538194 15.3887 0.0253038 15.6258C0.0944444 16.4598 0.225304 16.9844 0.502257 17.5582C1.03155 18.6566 2.0421 19.4813 3.23234 19.7891C3.64444 19.8953 4.09991 19.9535 4.68429 19.9812C4.93194 19.9922 7.45616 19.9996 9.98194 19.9996C12.5077 19.9996 15.0331 19.9965 15.2749 19.9844C15.9519 19.9523 16.3448 19.8996 16.7792 19.7875C17.9773 19.4781 18.9694 18.666 19.5093 17.552C19.7808 16.9918 19.9183 16.4473 19.9808 15.657C19.9944 15.4848 19.9999 12.7371 19.9999 9.99336C19.9999 7.24922 19.9937 4.50664 19.9804 4.33437C19.9175 3.53125 19.7796 2.99102 19.4995 2.42031C19.2694 1.95312 19.0144 1.60391 18.6437 1.24727C17.9819 0.615234 17.173 0.230469 16.2089 0.0914062C15.7413 0.0242187 15.6484 0.00429688 13.2581 0H10.003Z" fill="url(#paint3_radial_5982_157165)"/>
<path d="M10.0047 2.56836C7.98516 2.56836 7.73164 2.57734 6.93867 2.61328C6.14687 2.64961 5.60664 2.77461 5.13398 2.95859C4.64492 3.14844 4.23008 3.40234 3.8168 3.81523C3.40312 4.22813 3.14922 4.64297 2.95859 5.13125C2.77422 5.60391 2.64883 6.14414 2.61328 6.93477C2.57773 7.72734 2.56836 7.98086 2.56836 9.99883C2.56836 12.0168 2.57734 12.2695 2.61328 13.0621C2.64961 13.8531 2.775 14.393 2.95859 14.8656C3.14883 15.3543 3.40273 15.7688 3.81641 16.182C4.22969 16.5953 4.64453 16.85 5.1332 17.0398C5.60625 17.2234 6.14688 17.3488 6.93828 17.3852C7.73164 17.4211 7.98477 17.4301 10.0043 17.4301C12.0238 17.4301 12.2766 17.4211 13.0699 17.3852C13.8617 17.3488 14.4027 17.2238 14.8758 17.0398C15.3648 16.85 15.7789 16.5957 16.1922 16.1824C16.6059 15.7695 16.8598 15.3547 17.0504 14.8664C17.2332 14.3938 17.3586 13.8535 17.3957 13.0629C17.4312 12.2703 17.4406 12.0176 17.4406 9.99961C17.4406 7.98164 17.4312 7.72812 17.3957 6.93555C17.3586 6.14453 17.2332 5.60469 17.0504 5.13203C16.8598 4.64336 16.6059 4.22891 16.1922 3.81562C15.7785 3.40234 15.3648 3.14844 14.8754 2.95859C14.4012 2.775 13.8605 2.64961 13.0691 2.61328C12.2758 2.57734 12.0234 2.56836 10.0031 2.56836H10.0047ZM9.33789 3.90742C9.53594 3.90703 9.75664 3.90742 10.0051 3.90742C11.9906 3.90742 12.2258 3.91445 13.0098 3.95C13.7348 3.9832 14.1281 4.1043 14.3902 4.20586C14.7371 4.34063 14.9848 4.50156 15.2449 4.76172C15.5051 5.02188 15.6664 5.26953 15.8016 5.61641C15.9035 5.87813 16.0246 6.27109 16.0578 6.9957C16.0934 7.77891 16.1012 8.01445 16.1012 9.99727C16.1012 11.9805 16.0934 12.2156 16.0578 12.9988C16.0246 13.7234 15.9035 14.1164 15.8016 14.3781C15.6668 14.725 15.5055 14.9719 15.2449 15.2316C14.9848 15.4918 14.7375 15.6527 14.3902 15.7875C14.1285 15.8898 13.7348 16.0105 13.0098 16.0434C12.2258 16.0789 11.9902 16.0867 10.0051 16.0867C8.01953 16.0867 7.78398 16.0789 7.00039 16.0434C6.27539 16.0098 5.88203 15.8891 5.61953 15.7871C5.27266 15.6523 5.02461 15.4914 4.76445 15.2313C4.5043 14.9711 4.34297 14.7242 4.20781 14.3773C4.10586 14.1156 3.98477 13.7227 3.95156 12.998C3.91602 12.2148 3.90898 11.9793 3.90898 9.99531C3.90898 8.01094 3.91602 7.77695 3.95156 6.99375C3.98477 6.26914 4.10586 5.87617 4.20781 5.61406C4.34258 5.26719 4.50391 5.01953 4.76445 4.75938C5.02461 4.49922 5.27266 4.33828 5.61953 4.20312C5.88164 4.10078 6.27539 3.98008 7.00039 3.94688C7.68633 3.91602 7.95234 3.90664 9.33828 3.90508L9.33789 3.90742ZM13.9742 5.14141C13.4816 5.14141 13.082 5.54023 13.082 6.03281C13.082 6.525 13.4816 6.92461 13.9742 6.92461C14.4668 6.92461 14.8664 6.52539 14.8664 6.03281C14.8664 5.54023 14.4668 5.14102 13.9742 5.14141ZM10.0047 6.1832C7.8957 6.1832 6.18594 7.8918 6.18594 9.99922C6.18594 12.1066 7.8957 13.8145 10.0047 13.8145C12.1137 13.8145 13.8227 12.1066 13.8227 9.99922C13.8227 7.8918 12.1137 6.1832 10.0047 6.1832ZM10.0047 7.52227C11.3734 7.52227 12.4836 8.63125 12.4836 9.99922C12.4836 11.3672 11.3738 12.4762 10.0047 12.4762C8.63555 12.4762 7.52578 11.3672 7.52578 9.99922C7.52617 8.63086 8.63594 7.52227 10.0047 7.52227Z" fill="white"/>
</g>
<defs>
<radialGradient id="paint0_radial_5982_157165" cx="0" cy="0" r="1" gradientUnits="userSpaceOnUse" gradientTransform="translate(19.3543 9.37437) rotate(164.251) scale(12.7789 9.20658)">
<stop stop-color="#FF005F"/>
<stop offset="1" stop-color="#FC01D8"/>
</radialGradient>
<radialGradient id="paint1_radial_5982_157165" cx="0" cy="0" r="1" gradientUnits="userSpaceOnUse" gradientTransform="translate(5.31228 21.5404) rotate(-90) scale(15.9644 16.9379)">
<stop stop-color="#FFCC00"/>
<stop offset="0.1242" stop-color="#FFCC00"/>
<stop offset="0.5672" stop-color="#FE4A05"/>
<stop offset="0.6942" stop-color="#FF0F3F"/>
<stop offset="1" stop-color="#FE0657" stop-opacity="0"/>
</radialGradient>
<radialGradient id="paint2_radial_5982_157165" cx="0" cy="0" r="1" gradientUnits="userSpaceOnUse" gradientTransform="translate(10.5051 19.7179) rotate(-59.8697) scale(6.60141 8.59433)">
<stop stop-color="#FFCC00"/>
<stop offset="1" stop-color="#FFCC00" stop-opacity="0"/>
</radialGradient>
<radialGradient id="paint3_radial_5982_157165" cx="0" cy="0" r="1" gradientUnits="userSpaceOnUse" gradientTransform="translate(2.71353 0.815049) rotate(164.274) scale(12.6371 4.30548)">
<stop stop-color="#780CFF"/>
<stop offset="1" stop-color="#820BFF" stop-opacity="0"/>
</radialGradient>
<clipPath id="clip0_5982_157165">
<rect width="20" height="20" fill="white"/>
</clipPath>
</defs>
</svg>
