<svg width="20" height="20" viewBox="0 0 20 20" fill="none" xmlns="http://www.w3.org/2000/svg">
<g clip-path="url(#clip0_5982_157159)">
<path d="M17 0H3C1.34315 0 0 1.34315 0 3V17C0 18.6569 1.34315 20 3 20H17C18.6569 20 20 18.6569 20 17V3C20 1.34315 18.6569 0 17 0Z" fill="#3B5998"/>
<path d="M11.2109 17.8125V6.13281C11.2109 5.3125 11.4453 4.76562 12.5781 4.76562H14.0625V2.30469C13.7891 2.26562 12.9297 2.1875 11.9141 2.1875C9.80469 2.1875 8.35938 3.47656 8.35938 5.85938V17.8125M13.9453 7.89062H5.9375V10.7031H13.5938" fill="white"/>
</g>
<defs>
<clipPath id="clip0_5982_157159">
<rect width="20" height="20" fill="white"/>
</clipPath>
</defs>
</svg>
