<svg width="20" height="20" viewBox="0 0 20 20" fill="none" xmlns="http://www.w3.org/2000/svg">
<g clip-path="url(#clip0_5982_157172)">
<path d="M18.5187 0.000747681H1.47625C0.6625 0.000747681 0 0.646373 0 1.44137V18.5564C0 19.3533 0.6625 20.0001 1.47625 20.0001H18.52C19.3356 20.0001 20 19.3533 20 18.5564V1.44137C20 0.646373 19.3356 0.000747681 18.5187 0.000747681Z" fill="#0177B5"/>
<path d="M2.96539 7.49812H5.93727V17.0419H2.96539V7.49812ZM4.44914 2.74812C5.39727 2.74812 6.16789 3.51875 6.16789 4.46687C6.16789 5.415 5.39727 6.1875 4.44977 6.1875C3.99367 6.18651 3.55654 6.00493 3.23397 5.68248C2.91141 5.36004 2.72967 4.92297 2.72852 4.46687C2.72852 4.24101 2.77303 4.01735 2.85953 3.8087C2.94602 3.60005 3.07279 3.4105 3.23259 3.25087C3.39239 3.09125 3.58208 2.96468 3.79083 2.87842C3.99957 2.79215 4.22327 2.74788 4.44914 2.74812ZM7.79289 7.49812H10.6379V8.8025H10.6773C11.0735 8.0525 12.041 7.26125 13.4898 7.26125C16.4935 7.26125 17.0479 9.23812 17.0479 11.8075V17.0425H14.0835V12.4C14.0835 11.2937 14.0635 9.86875 12.5423 9.86875C10.9985 9.86875 10.761 11.075 10.761 12.3187V17.04H7.79727V7.49625L7.79289 7.49812Z" fill="white"/>
</g>
<defs>
<clipPath id="clip0_5982_157172">
<rect width="20" height="20" fill="white"/>
</clipPath>
</defs>
</svg>
