<svg width="20" height="20" viewBox="0 0 20 20" fill="none" xmlns="http://www.w3.org/2000/svg">
<g clip-path="url(#clip0_5982_157162)">
<path d="M17 0H3C1.34315 0 0 1.34315 0 3V17C0 18.6569 1.34315 20 3 20H17C18.6569 20 20 18.6569 20 17V3C20 1.34315 18.6569 0 17 0Z" fill="#1DA1F2"/>
<path d="M17.0703 5.9375C16.6016 6.17187 16.0547 6.32812 15.5078 6.40625C16.0938 6.05468 16.5234 5.50781 16.7578 4.84375C16.2109 5.15625 15.625 5.39062 15 5.50781C14.5749 5.07243 14.0201 4.78666 13.4188 4.69338C12.8175 4.60009 12.2022 4.70433 11.6652 4.99045C11.1281 5.27657 10.6984 5.72913 10.4404 6.28022C10.1824 6.83131 10.1101 7.45121 10.2344 8.04687C8.04688 7.92968 5.9375 6.91406 4.57031 5.15625C4.38428 5.45338 4.2589 5.7844 4.20141 6.13021C4.14392 6.47603 4.15545 6.82981 4.23534 7.17115C4.31523 7.51249 4.46189 7.83464 4.66688 8.11902C4.87186 8.40341 5.13112 8.64441 5.42969 8.82812C5 8.82812 4.57031 8.75 4.17969 8.55468C4.21875 9.84375 5.11719 10.9766 6.36719 11.25C5.97656 11.3672 5.54688 11.3672 5.11719 11.2891C5.50781 12.4219 6.5625 13.2031 7.73438 13.2422C6.60156 14.1797 5.07812 14.6094 3.63281 14.375C4.84059 15.1809 6.24996 15.6325 7.70121 15.6785C9.15247 15.7245 10.5876 15.3631 11.844 14.6353C13.1004 13.9075 14.1278 12.8423 14.8099 11.5605C15.492 10.2787 15.8014 8.83147 15.7031 7.38281C16.25 6.99218 16.7188 6.52343 17.0703 5.9375Z" fill="white"/>
</g>
<defs>
<clipPath id="clip0_5982_157162">
<rect width="20" height="20" fill="white"/>
</clipPath>
</defs>
</svg>
