<svg width="20" height="20" viewBox="0 0 20 20" fill="none" xmlns="http://www.w3.org/2000/svg">
<g clip-path="url(#clip0_5982_157175)">
<path d="M17 0H3C1.34315 0 0 1.34315 0 3V17C0 18.6569 1.34315 20 3 20H17C18.6569 20 20 18.6569 20 17V3C20 1.34315 18.6569 0 17 0Z" fill="#ED1D24"/>
<path d="M16.6789 6.60176C16.5227 6.01582 16.0148 5.54707 15.4289 5.39082C14.1008 5.03925 6.09297 5.00019 4.56953 5.39082C3.98359 5.54707 3.47578 6.01582 3.31953 6.60176C2.96797 8.08613 2.9289 11.8752 3.31953 13.3986C3.47578 13.9846 3.98359 14.4533 4.56953 14.6096C5.97578 15.0002 13.9836 15.0002 15.4289 14.6096C16.0148 14.4533 16.5227 13.9846 16.6789 13.3986C17.0305 11.9924 17.0305 8.04707 16.6789 6.60176Z" fill="white"/>
<path d="M8.59375 7.92969V12.0703L12.2266 10" fill="#ED1D24"/>
</g>
<defs>
<clipPath id="clip0_5982_157175">
<rect width="20" height="20" fill="white"/>
</clipPath>
</defs>
</svg>
