<svg width="22" height="25" viewBox="0 0 22 25" fill="none" xmlns="http://www.w3.org/2000/svg">
<path d="M0.5 1.70391C0.5 1.45837 0.533411 1.25749 0.586697 1.09623L11.6058 12.1593L0.586382 23.2218C0.533273 23.0608 0.5 22.8602 0.5 22.6147V1.70391Z" fill="#1C1D1F" stroke="#F6F8D3"/>
<path d="M20.5115 13.0912L16.148 15.58L12.742 12.1591L16.1479 8.73994L20.5117 11.229C21.0782 11.5522 21.2463 11.908 21.2463 12.1597C21.2463 12.4114 21.0782 12.7674 20.5118 13.091C20.5118 13.091 20.5118 13.091 20.5118 13.091C20.5117 13.0911 20.5116 13.0911 20.5115 13.0912Z" fill="#1C1D1F" stroke="#F6F8D3"/>
<path d="M1.26753 23.8161L12.1726 12.8676L15.3352 16.0425L2.14529 23.567C2.14517 23.567 2.14505 23.5671 2.14493 23.5672C1.78547 23.7718 1.49453 23.8351 1.26753 23.8161Z" fill="#1C1D1F" stroke="#F6F8D3"/>
<path d="M12.1735 11.4516L1.26725 0.502849C1.49437 0.483631 1.78542 0.546981 2.14491 0.75206L2.14493 0.752075L15.3354 8.27589L12.1735 11.4516Z" fill="#1C1D1F" stroke="#F6F8D3"/>
</svg>
