<svg width="16" height="24" viewBox="0 0 16 24" fill="none" xmlns="http://www.w3.org/2000/svg">
<path d="M7.10933 0H0V15.2296C0 20.0648 3.98911 24 8.89067 24H16V8.77045C16 3.93517 12.0109 0 7.10933 0ZM13.8358 21.8651H8.89067C5.18126 21.8651 2.16421 18.8888 2.16421 15.2296V5.98191H2.18943C4.62416 5.98191 6.63705 7.80249 6.903 10.1364V13.3366C6.903 13.5492 6.91446 13.7573 6.9328 13.9653V14.0535H6.93968C7.3042 17.4753 10.2456 20.1508 13.8083 20.1508H13.8335V21.8651H13.8358ZM13.8358 18.0158H13.8106C11.3758 18.0158 9.36295 16.1953 9.09701 13.8613V10.6611C9.09701 10.4486 9.08554 10.2405 9.0672 10.0324V9.94421H9.06033C8.6958 6.52243 5.75441 3.84697 2.19172 3.84697H2.1665V2.13268H7.11162C10.821 2.13268 13.8381 5.10893 13.8381 8.76819V18.0158H13.8358Z" fill="#D3DB22"/>
</svg>