<svg width="88" height="24" viewBox="0 0 88 24" fill="none" xmlns="http://www.w3.org/2000/svg">
<path d="M7.10933 0H0V15.2296C0 20.0648 3.98911 24 8.89067 24H16V8.77045C16 3.93517 12.0109 0 7.10933 0ZM13.8358 21.8651H8.89067C5.18126 21.8651 2.16421 18.8888 2.16421 15.2296V5.98191H2.18943C4.62416 5.98191 6.63705 7.80249 6.903 10.1364V13.3366C6.903 13.5492 6.91446 13.7573 6.9328 13.9653V14.0535H6.93968C7.3042 17.4753 10.2456 20.1508 13.8083 20.1508H13.8335V21.8651H13.8358ZM13.8358 18.0158H13.8106C11.3758 18.0158 9.36295 16.1953 9.09701 13.8613V10.6611C9.09701 10.4486 9.08554 10.2405 9.0672 10.0324V9.94421H9.06033C8.6958 6.52243 5.75441 3.84697 2.19172 3.84697H2.1665V2.13268H7.11162C10.821 2.13268 13.8381 5.10893 13.8381 8.76819V18.0158H13.8358Z" fill="white"/>
<path d="M27.3133 4.24876V19.5184H33.0136C33.5111 19.5184 33.9133 19.3596 34.2732 19.0473C34.612 18.7562 34.8131 18.1264 34.8607 17.6288L34.9295 16.8614H35.1995L34.9507 19.7671H24V19.5184H25.1697V4.24876H24V4H28.483V4.24876H27.3133Z" fill="white"/>
<path d="M47.4253 13.7122V4.22759H46.2979V4H48.7749V4.22759H47.674V13.7122C47.674 15.4694 47.1553 16.9778 46.118 18.174C45.1018 19.3913 43.9321 20 42.2437 20C40.5553 20 39.158 19.3913 38.1418 18.2005C37.1044 17.0043 36.5645 15.4959 36.5645 13.7175V4.23288H35.416V4.0053H39.9413V4.23288H38.724V14.9084C38.724 16.2157 39.0416 17.2742 39.7137 18.1316C40.3436 18.9626 41.2433 19.3702 42.3919 19.3702C43.9215 19.3702 45.1176 18.8515 46.0386 17.7717C46.9383 16.7132 47.4147 15.3635 47.4147 13.7175L47.4253 13.7122Z" fill="white"/>
<path d="M61.4824 4H63.9383V4.24876H62.7686L57.8357 11.1399L63.2185 19.5184H64.2082V19.7671H60.0851V19.5184H60.7362L56.5443 12.9395L51.839 19.5184H52.7653V19.7671H50.3094V19.5184H51.5956L56.4173 12.7383L50.9446 4.24876H50.1348V4H54.279V4.24876H53.4216L57.7034 10.9388L62.5251 4.24876H61.4877V4H61.4824Z" fill="white"/>
<path d="M66.7283 4.24876H65.5586V4H70.0416V4.24876H68.8719V19.5184H70.0416V19.7671H65.5586V19.5184H66.7283V4.24876Z" fill="white"/>
<path d="M83.9615 19.5237V4.76752L78.3988 19.9736H78.15C78.15 19.9736 76.3029 14.7708 72.7673 5.01628V19.5237H73.8947V19.7725H71.3965V19.5237H72.5238V4.25413H71.3965V4.00537H74.7309C76.2605 8.28721 77.7954 12.5637 79.3039 16.8668L83.9668 4.00537H87.2536V4.25413H86.0839V19.5237H87.2536V19.7725H82.7918V19.5237H83.9615Z" fill="white"/>
</svg>
